<svg width="337" height="92" viewBox="0 0 337 92" fill="none" xmlns="http://www.w3.org/2000/svg">
<path d="M224.22 0V66.802C232.355 67.1853 240.469 67.6487 248.56 68.1953V82.3587C235.728 81.4919 222.882 80.8343 210.028 80.386V0H224.22ZM336.999 0.008L318.518 43.404L336.994 91.696L336.974 91.7047C331.587 90.9284 326.195 90.1899 320.798 89.4893L310.422 62.3853L299.948 86.9733C294.984 86.418 290.014 85.8933 285.032 85.4L303.048 43.1133L286.549 0.00866667H301.901L311.139 24.1313L321.411 0.008H336.999ZM161.32 79.684V0.00733333H200.937V14.298H175.512V32.818H194.749V46.9813H175.512V79.6813L161.32 79.684ZM108.326 14.2987V0.00666667H152.221V14.298H137.369V80.0713C132.632 80.198 127.9 80.346 123.178 80.5267V14.2987H108.326ZM59.8082 84.644V0.00933333H99.228V14.2993H73.9984V33.6567C79.7945 33.5813 88.0359 33.4967 93.1633 33.5087V47.6733C86.7452 47.5933 79.5003 47.7627 73.9984 47.818V69.2607C82.402 68.5899 90.8124 68.0077 99.228 67.514V81.6787C86.0728 82.4474 72.9311 83.4364 59.8082 84.6453V84.644ZM31.9682 51.9027L31.9675 0.00666667H46.1597V85.98C40.9717 86.52 35.793 87.0953 30.6241 87.7027L14.1894 39.8827V89.7507C9.44972 90.376 4.71922 91.0273 -0.0020752 91.708V0.008H13.4852L31.9682 51.9027ZM260.269 83.2127V0.008H274.461V84.4C269.736 83.9733 265.007 83.5793 260.269 83.2127Z" fill="#DB202C"/>
</svg>
